<?xml version="1.0" encoding="UTF-8" standalone="no"?>
<!-- Created with Inkscape (http://www.inkscape.org/) -->

<svg
   width="79.357719mm"
   height="39.785549mm"
   viewBox="0 0 79.357719 39.785549"
   version="1.1"
   id="svg1"
   xml:space="preserve"
   xmlns="http://www.w3.org/2000/svg"
   xmlns:svg="http://www.w3.org/2000/svg"><style
     id="style10154"></style><defs
     id="defs1"><linearGradient
       id="swatch6025"><stop
         style="stop-color:#a87ae9;stop-opacity:1;"
         offset="0"
         id="stop6025" /></linearGradient></defs><g
     id="g1"
     transform="matrix(0.26458333,0,0,0.26458334,1778.6754,-179.48484)"><g
       id="g6337-0-9"
       transform="matrix(3.7795276,0,0,3.7795275,-7081.1565,271.69924)"><g
         id="g6280-9-0"
         transform="translate(60.220118,-105.09876)"><path
           d="m 85.981451,249.09606 c -0.22586,0 -0.441662,0.0457 -0.646989,0.13643 -0.195061,0.0807 -0.36425,0.19161 -0.507979,0.33279 -0.14373,0.14119 -0.261587,0.3125 -0.353984,0.51418 -0.08213,0.19161 -0.123507,0.39336 -0.123507,0.60514 0,0.22185 0.04138,0.43341 0.123507,0.6351 0.0924,0.1916 0.210254,0.36291 0.353984,0.51418 0.143729,0.14118 0.312918,0.25754 0.507979,0.3483 0.205327,0.0807 0.421129,0.12092 0.646989,0.12092 0.22586,0 0.436425,-0.0403 0.631486,-0.12092 0.195061,-0.0908 0.36425,-0.20712 0.507979,-0.3483 0.143729,-0.15127 0.256867,-0.32258 0.338998,-0.51418 0.0924,-0.20169 0.138492,-0.41325 0.138492,-0.6351 0,-0.21178 -0.04609,-0.41353 -0.138492,-0.60514 -0.08213,-0.20168 -0.195269,-0.37299 -0.338998,-0.51418 -0.143729,-0.14118 -0.312918,-0.25212 -0.507979,-0.33279 -0.195061,-0.0908 -0.405626,-0.13643 -0.631486,-0.13643 z"
           style="font-size:15.2625px;font-family:Tostada;-inkscape-font-specification:'Tostada, Normal';stroke:#000000;stroke-width:0.357914;stroke-linecap:round;stroke-linejoin:round;stroke-miterlimit:99.2;paint-order:fill markers stroke"
           id="path123-4-7-4" /><path
           d="m 76.402707,248.27906 c -0.523585,0 -0.964627,0.0658 -1.32395,0.19688 -0.349056,0.1311 -0.626663,0.29751 -0.83199,0.4992 -0.205328,0.1916 -0.354087,0.40316 -0.446485,0.6351 -0.08213,0.23194 -0.12299,0.45382 -0.12299,0.66559 0,0.22186 0.03562,0.44916 0.107487,0.6811 0.08213,0.23194 0.226171,0.4484 0.431499,0.65009 0.205327,0.1916 0.482417,0.35311 0.831473,0.48421 0.359323,0.12101 0.810839,0.18138 1.354956,0.18138 h 0.169499 1.185974 c -0.420921,-0.14118 -0.765052,-0.39298 -1.031978,-0.75602 -0.266926,-0.36304 -0.400492,-0.77687 -0.400492,-1.24076 0,-0.46388 0.133566,-0.87719 0.400492,-1.24023 0.266926,-0.36304 0.611057,-0.61536 1.031978,-0.75654 z"
           style="font-size:15.2625px;font-family:Tostada;-inkscape-font-specification:'Tostada, Normal';stroke:#000000;stroke-width:0.357914;stroke-linecap:round;stroke-linejoin:round;stroke-miterlimit:99.2;paint-order:fill markers stroke"
           id="path122-2-7-4" /><path
           d="m 56.321763,248.27906 c -0.523585,0 -0.965144,0.0658 -1.324467,0.19688 -0.349057,0.1311 -0.626147,0.29751 -0.831474,0.4992 -0.205328,0.1916 -0.354087,0.40316 -0.446485,0.6351 -0.08213,0.23194 -0.122989,0.45382 -0.122989,0.66559 0,0.22186 0.03562,0.44916 0.107487,0.6811 0.08213,0.23194 0.22617,0.4484 0.431498,0.65009 0.205327,0.1916 0.482417,0.35311 0.831474,0.48421 0.359323,0.12101 0.810838,0.18138 1.354956,0.18138 h 0.169498 1.185974 c -0.420921,-0.14118 -0.765052,-0.39298 -1.031978,-0.75602 -0.266926,-0.36304 -0.400492,-0.77687 -0.400492,-1.24076 0,-0.46388 0.133566,-0.87719 0.400492,-1.24023 0.266926,-0.36304 0.611057,-0.61536 1.031978,-0.75654 z"
           style="font-size:15.2625px;font-family:Tostada;-inkscape-font-specification:'Tostada, Normal';stroke:#000000;stroke-width:0.357914;stroke-linecap:round;stroke-linejoin:round;stroke-miterlimit:99.2;paint-order:fill markers stroke"
           id="path121-4-9-1" /><path
           d="m 93.573236,244.78521 c 0.195061,0.15127 0.370003,0.35302 0.523999,0.60513 0.164262,0.24203 0.302548,0.52428 0.415478,0.84698 0.11293,0.3227 0.200401,0.67564 0.262,1.05885 0.07186,0.38321 0.107487,0.78672 0.107487,1.21026 0,0.42355 -0.03562,0.82654 -0.107487,1.20975 -0.0616,0.38321 -0.14907,0.73615 -0.262,1.05885 -0.11293,0.3227 -0.251216,0.61037 -0.415478,0.86248 -0.153996,0.24203 -0.328938,0.43836 -0.523999,0.58963 h 0.246496 c 0.564651,0 1.093681,-0.0957 1.586467,-0.28732 0.503052,-0.20169 0.939374,-0.46872 1.308964,-0.80151 0.369589,-0.34287 0.661872,-0.73605 0.877465,-1.17977 0.215594,-0.4538 0.323495,-0.9378 0.323495,-1.45211 0,-0.5143 -0.107901,-0.99882 -0.323495,-1.45262 -0.215593,-0.4538 -0.507876,-0.84699 -0.877465,-1.17977 -0.36959,-0.33279 -0.805912,-0.59491 -1.308964,-0.78652 -0.492786,-0.20169 -1.021816,-0.30231 -1.586467,-0.30231 z"
           style="font-size:15.2625px;font-family:Tostada;-inkscape-font-specification:'Tostada, Normal';stroke:#000000;stroke-width:0.357914;stroke-linecap:round;stroke-linejoin:round;stroke-miterlimit:99.2;paint-order:fill markers stroke"
           id="path120-0-5-0" /><path
           d="m 67.840956,244.75472 c -0.554384,0 -1.072941,0.10114 -1.55546,0.30283 -0.48252,0.1916 -0.903649,0.45863 -1.262973,0.8015 -0.359323,0.33279 -0.641649,0.72597 -0.846976,1.17977 -0.205328,0.4538 -0.307992,0.93781 -0.307992,1.45211 0,0.51431 0.102664,0.99831 0.307992,1.45211 0.205327,0.4538 0.487653,0.8524 0.846976,1.19527 0.359324,0.33279 0.780453,0.59982 1.262973,0.80151 0.482519,0.1916 1.001076,0.28732 1.55546,0.28732 h 0.24598 c -0.184795,-0.15127 -0.35922,-0.3476 -0.523482,-0.58963 -0.153996,-0.25211 -0.287563,-0.53978 -0.400493,-0.86248 -0.102663,-0.3227 -0.184381,-0.67564 -0.245979,-1.05885 -0.0616,-0.39329 -0.0925,-0.8017 -0.0925,-1.22525 0,-0.42355 0.0309,-0.82705 0.0925,-1.21026 0.0616,-0.39329 0.143316,-0.75114 0.245979,-1.07384 0.11293,-0.3227 0.246497,-0.60495 0.400493,-0.84697 0.164262,-0.25212 0.338687,-0.45387 0.523482,-0.60514 z"
           style="font-size:15.2625px;font-family:Tostada;-inkscape-font-specification:'Tostada, Normal';stroke:#000000;stroke-width:0.357914;stroke-linecap:round;stroke-linejoin:round;stroke-miterlimit:99.2;paint-order:fill markers stroke"
           id="path119-6-5-7" /><path
           d="m 109.75829,244.36147 c 0.1848,0.16135 0.34927,0.37832 0.493,0.6506 0.15399,0.2622 0.28232,0.56457 0.38499,0.90744 0.11293,0.34287 0.19988,0.72084 0.26148,1.1343 0.0616,0.41346 0.0925,0.84251 0.0925,1.28623 0,0.44371 -0.0309,0.87224 -0.0925,1.2857 -0.0616,0.40338 -0.14855,0.77645 -0.26148,1.11932 -0.10267,0.34287 -0.231,0.64524 -0.38499,0.90743 -0.14373,0.2622 -0.3082,0.47376 -0.493,0.63511 h 0.2465 c 0.52359,0 1.01648,-0.10062 1.47846,-0.30231 0.47226,-0.21177 0.88291,-0.49402 1.23197,-0.84698 0.34906,-0.36304 0.62091,-0.78176 0.81597,-1.25573 0.20533,-0.48406 0.30799,-0.99798 0.30799,-1.54254 0,-0.55465 -0.10266,-1.074 -0.30799,-1.55805 -0.19506,-0.48405 -0.46691,-0.90278 -0.81597,-1.25574 -0.34906,-0.36304 -0.75971,-0.64528 -1.23197,-0.84697 -0.46198,-0.21178 -0.95487,-0.31781 -1.47846,-0.31781 z"
           style="font-size:15.2625px;font-family:Tostada;-inkscape-font-specification:'Tostada, Normal';stroke:#000000;stroke-width:0.357914;stroke-linecap:round;stroke-linejoin:round;stroke-miterlimit:99.2;paint-order:fill markers stroke"
           id="path118-7-1-4" /><path
           d="m 107.80286,244.36147 c -0.52359,0 -1.02172,0.10603 -1.49397,0.31781 -0.46198,0.20169 -0.8674,0.48393 -1.21646,0.84697 -0.34906,0.35296 -0.62615,0.77169 -0.83148,1.25574 -0.19506,0.48405 -0.293,1.0034 -0.293,1.55805 0,0.54456 0.0979,1.05848 0.293,1.54254 0.20533,0.47397 0.48242,0.89269 0.83148,1.25573 0.34906,0.35296 0.75448,0.63521 1.21646,0.84698 0.47225,0.20169 0.97038,0.30231 1.49397,0.30231 h 0.24598 c -0.1848,-0.16135 -0.35399,-0.37291 -0.50798,-0.63511 -0.14373,-0.26219 -0.27206,-0.56456 -0.38499,-0.90743 -0.10267,-0.34287 -0.1849,-0.71594 -0.2465,-1.11932 -0.0616,-0.41346 -0.0925,-0.84199 -0.0925,-1.2857 0,-0.44372 0.0309,-0.87277 0.0925,-1.28623 0.0616,-0.41346 0.14383,-0.79143 0.2465,-1.1343 0.11293,-0.34287 0.24126,-0.64524 0.38499,-0.90744 0.15399,-0.27228 0.32318,-0.48925 0.50798,-0.6506 z"
           style="font-size:15.2625px;font-family:Tostada;-inkscape-font-specification:'Tostada, Normal';stroke:#000000;stroke-width:0.357914;stroke-linecap:round;stroke-linejoin:round;stroke-miterlimit:99.2;paint-order:fill markers stroke"
           id="path117-1-5-1" /><path
           d="m 79.498126,244.34648 v 3.47886 4.47776 h 2.818432 v -4.26589 c 0,-0.44371 -0.07228,-0.86734 -0.216007,-1.27072 -0.143729,-0.40338 -0.338584,-0.76612 -0.584977,-1.08882 -0.246393,-0.32271 -0.533956,-0.59515 -0.86248,-0.81701 -0.318258,-0.23194 -0.657152,-0.39345 -1.016475,-0.48421 z"
           style="font-size:15.2625px;font-family:Tostada;-inkscape-font-specification:'Tostada, Normal';stroke:#000000;stroke-width:0.357914;stroke-linecap:round;stroke-linejoin:round;stroke-miterlimit:99.2;paint-order:fill markers stroke"
           id="path116-5-9-4" /><path
           d="m 59.417181,244.34648 v 3.47886 4.47776 h 2.817916 v -4.26589 c 0,-0.44371 -0.07176,-0.86734 -0.215491,-1.27072 -0.143729,-0.40338 -0.338584,-0.76612 -0.584977,-1.08882 -0.246393,-0.32271 -0.533956,-0.59515 -0.86248,-0.81701 -0.318257,-0.23194 -0.657152,-0.39345 -1.016475,-0.48421 z"
           style="font-size:15.2625px;font-family:Tostada;-inkscape-font-specification:'Tostada, Normal';stroke:#000000;stroke-width:0.357914;stroke-linecap:round;stroke-linejoin:round;stroke-miterlimit:99.2;paint-order:fill markers stroke"
           id="path115-9-6-5" /><path
           d="m 44.895587,244.31599 4.373376,7.97161 1.493449,-2.42001 -2.910417,-5.5516 z"
           style="font-size:15.2625px;font-family:Tostada;-inkscape-font-specification:'Tostada, Normal';stroke:#000000;stroke-width:0.357914;stroke-linecap:round;stroke-linejoin:round;stroke-miterlimit:99.2;paint-order:fill markers stroke"
           id="path114-1-6-9" /><path
           d="m 77.095688,244.25553 c -0.205327,0 -0.420612,0.0201 -0.646472,0.0605 -0.195061,0.0403 -0.410862,0.11103 -0.646989,0.21187 -0.22586,0.0908 -0.451618,0.22673 -0.677478,0.40825 -0.646781,0.53447 -0.83168,1.11961 -0.554488,1.75493 0.07187,0.16135 0.169292,0.29732 0.292489,0.40824 0.123196,0.11093 0.261999,0.19685 0.415995,0.25735 0.153996,0.0504 0.313228,0.0755 0.47749,0.0755 0.174529,0 0.338481,-0.0354 0.492477,-0.10594 0.164262,-0.0706 0.303065,-0.1663 0.415995,-0.28732 0.11293,-0.12101 0.200401,-0.25697 0.261999,-0.40824 0.0616,-0.15127 0.08726,-0.30787 0.077,-0.46922 0,-0.17144 -0.03614,-0.33243 -0.108003,-0.48369 -0.112931,-0.23195 -0.164263,-0.4337 -0.153996,-0.60513 0.01027,-0.18152 0.04117,-0.33271 0.0925,-0.45372 0.0616,-0.14119 0.148552,-0.26244 0.261482,-0.36329 z"
           style="font-size:15.2625px;font-family:Tostada;-inkscape-font-specification:'Tostada, Normal';stroke:#000000;stroke-width:0.357914;stroke-linecap:round;stroke-linejoin:round;stroke-miterlimit:99.2;paint-order:fill markers stroke"
           id="path113-5-8-7" /><path
           d="m 57.014744,244.25553 c -0.205328,0 -0.420612,0.0201 -0.646473,0.0605 -0.195061,0.0403 -0.410862,0.11103 -0.646989,0.21187 -0.22586,0.0908 -0.451617,0.22673 -0.677478,0.40825 -0.646781,0.53447 -0.83168,1.11961 -0.554488,1.75493 0.07187,0.16135 0.169292,0.29732 0.292489,0.40824 0.123196,0.11093 0.262,0.19685 0.415995,0.25735 0.153996,0.0504 0.313228,0.0755 0.47749,0.0755 0.174529,0 0.338481,-0.0354 0.492477,-0.10594 0.164262,-0.0706 0.303065,-0.1663 0.415995,-0.28732 0.11293,-0.12101 0.199885,-0.25697 0.261483,-0.40824 0.0616,-0.15127 0.08726,-0.30787 0.077,-0.46922 0,-0.17144 -0.03562,-0.33243 -0.107487,-0.48369 -0.11293,-0.23195 -0.164262,-0.4337 -0.153996,-0.60513 0.01027,-0.18152 0.04117,-0.33271 0.0925,-0.45372 0.0616,-0.14119 0.148552,-0.26244 0.261483,-0.36329 z"
           style="font-size:15.2625px;font-family:Tostada;-inkscape-font-specification:'Tostada, Normal';stroke:#000000;stroke-width:0.357914;stroke-linecap:round;stroke-linejoin:round;stroke-miterlimit:99.2;paint-order:fill markers stroke"
           id="path112-0-0-1" /><path
           d="m 102.1355,244.01368 c -0.28745,0.20169 -0.6054,0.40345 -0.95446,0.60514 -0.29773,0.18152 -0.65233,0.38327 -1.06298,0.60513 -0.410659,0.21177 -0.851701,0.41842 -1.323954,0.62011 0.11293,0.0706 0.220313,0.18644 0.322977,0.34779 0.08213,0.14118 0.159129,0.33261 0.230994,0.57464 0.0616,0.24202 0.0925,0.55472 0.0925,0.93793 v 4.59868 h 2.694923 z"
           style="font-size:15.2625px;font-family:Tostada;-inkscape-font-specification:'Tostada, Normal';stroke:#000000;stroke-width:0.357914;stroke-linecap:round;stroke-linejoin:round;stroke-miterlimit:99.2;paint-order:fill markers stroke"
           id="path111-0-5-1" /><path
           d="m 43.524611,244.01368 c -0.287459,0.20169 -0.605407,0.40345 -0.954464,0.60514 -0.297725,0.18152 -0.651812,0.38327 -1.062467,0.60513 -0.410655,0.21177 -0.852214,0.41842 -1.324467,0.62011 0.11293,0.0706 0.220831,0.18644 0.323494,0.34779 0.08213,0.14118 0.159129,0.33261 0.230994,0.57464 0.0616,0.24202 0.09198,0.55472 0.09198,0.93793 v 4.59868 h 2.694926 z"
           style="font-size:15.2625px;font-family:Tostada;-inkscape-font-specification:'Tostada, Normal';stroke:#000000;stroke-width:0.357914;stroke-linecap:round;stroke-linejoin:round;stroke-miterlimit:99.2;paint-order:fill markers stroke"
           id="path110-5-0-3" /><path
           d="m 52.028485,243.07111 c -0.256018,-0.0246 -0.503381,0.0275 -0.742074,0.15606 -0.318258,0.16135 -0.534059,0.41315 -0.646989,0.75603 -0.102664,0.34287 -0.07176,0.67078 0.0925,0.9834 0.174528,0.31262 0.436425,0.52417 0.785482,0.6351 0.256659,0.0807 0.451514,0.18181 0.584977,0.30283 0.133463,0.12101 0.23089,0.24175 0.292489,0.36276 0.07186,0.14119 0.108003,0.28747 0.108003,0.43874 0.153996,-0.15127 0.287562,-0.32748 0.400493,-0.52917 0.102663,-0.17144 0.189618,-0.37861 0.261482,-0.62063 0.08213,-0.24203 0.128227,-0.51396 0.138493,-0.81649 0.01027,-0.86726 -0.328111,-1.40673 -1.015958,-1.61851 -0.08727,-0.0252 -0.17356,-0.0419 -0.258899,-0.0501 z"
           style="font-size:15.2625px;font-family:Tostada;-inkscape-font-specification:'Tostada, Normal';stroke:#000000;stroke-width:0.357914;stroke-linecap:round;stroke-linejoin:round;stroke-miterlimit:99.2;paint-order:fill markers stroke"
           id="path109-9-9-1" /><path
           d="m 91.756292,240.61027 c -0.287458,0.20169 -0.605924,0.40293 -0.95498,0.60462 -0.297725,0.18152 -0.651813,0.38327 -1.062468,0.60513 -0.410655,0.21177 -0.852213,0.41843 -1.324467,0.62012 0.11293,0.0706 0.220831,0.18695 0.323495,0.3483 0.08213,0.14118 0.159129,0.33261 0.230993,0.57464 0.0616,0.24202 0.0925,0.55472 0.0925,0.93793 v 8.00209 h 2.694926 z"
           style="font-size:15.2625px;font-family:Tostada;-inkscape-font-specification:'Tostada, Normal';stroke:#000000;stroke-width:0.357914;stroke-linecap:round;stroke-linejoin:round;stroke-miterlimit:99.2;paint-order:fill markers stroke"
           id="path108-4-1-8" /><path
           d="m 72.522324,240.61027 c -0.287458,0.20169 -0.605924,0.40293 -0.95498,0.60462 -0.297725,0.18152 -0.651813,0.38327 -1.062468,0.60513 -0.410655,0.21177 -0.852214,0.41843 -1.324467,0.62012 0.11293,0.0706 0.220831,0.18695 0.323495,0.3483 0.08213,0.14118 0.153892,0.33261 0.21549,0.57464 0.07187,0.24202 0.108004,0.55472 0.108004,0.93793 v 8.00209 h 2.694926 z"
           style="font-size:15.2625px;font-family:Tostada;-inkscape-font-specification:'Tostada, Normal';stroke:#000000;stroke-width:0.357914;stroke-linecap:round;stroke-linejoin:round;stroke-miterlimit:99.2;paint-order:fill markers stroke"
           id="path107-3-2-4" /><path
           d="m 38.181268,240.61027 c -0.287459,0.20169 -0.605924,0.40293 -0.954981,0.60462 -0.297724,0.18152 -0.651812,0.38327 -1.062467,0.60513 -0.410655,0.21177 -0.852214,0.41843 -1.324467,0.62012 0.11293,0.0706 0.220831,0.18695 0.323494,0.3483 0.08213,0.14118 0.159129,0.33261 0.230994,0.57464 0.0616,0.24202 0.0925,0.55472 0.0925,0.93793 v 8.00209 h 2.694926 z"
           style="font-size:15.2625px;font-family:Tostada;-inkscape-font-specification:'Tostada, Normal';stroke:#000000;stroke-width:0.357914;stroke-linecap:round;stroke-linejoin:round;stroke-miterlimit:99.2;paint-order:fill markers stroke"
           id="path106-4-2-0" /><path
           d="m 100.88804,240.15604 c -0.20533,0 -0.40019,0.0408 -0.58498,0.12144 -0.17453,0.0706 -0.328527,0.17121 -0.46199,0.30231 -0.123196,0.13109 -0.225861,0.28718 -0.307991,0.4687 -0.07187,0.17144 -0.108004,0.35307 -0.108004,0.54467 0,0.20169 0.03614,0.38822 0.108004,0.55966 0.08213,0.17143 0.184795,0.32262 0.307991,0.45372 0.133463,0.13109 0.28746,0.23713 0.46199,0.31781 0.18479,0.0706 0.37965,0.10593 0.58498,0.10593 0.19506,0 0.37995,-0.0353 0.55448,-0.10593 0.1848,-0.0807 0.34403,-0.18672 0.47749,-0.31781 0.13347,-0.1311 0.23613,-0.28229 0.30799,-0.45372 0.0821,-0.17144 0.12299,-0.35797 0.12299,-0.55966 0,-0.1916 -0.0409,-0.37323 -0.12299,-0.54467 -0.0719,-0.18152 -0.17452,-0.33761 -0.30799,-0.4687 -0.13346,-0.1311 -0.29269,-0.23172 -0.47749,-0.30231 -0.17453,-0.0807 -0.35942,-0.12144 -0.55448,-0.12144 z"
           style="font-size:15.2625px;font-family:Tostada;-inkscape-font-specification:'Tostada, Normal';stroke:#000000;stroke-width:0.357914;stroke-linecap:round;stroke-linejoin:round;stroke-miterlimit:99.2;paint-order:fill markers stroke"
           id="path105-4-9-9" /><path
           d="m 42.277659,240.15604 c -0.205328,0 -0.4007,0.0408 -0.585494,0.12144 -0.174529,0.0706 -0.328525,0.17121 -0.461988,0.30231 -0.123196,0.13109 -0.22586,0.28718 -0.307991,0.4687 -0.07186,0.17144 -0.107487,0.35307 -0.107487,0.54467 0,0.20169 0.03562,0.38822 0.107487,0.55966 0.08213,0.17143 0.184795,0.32262 0.307991,0.45372 0.133463,0.13109 0.287459,0.23713 0.461988,0.31781 0.184794,0.0706 0.380166,0.10593 0.585494,0.10593 0.195061,0 0.379443,-0.0353 0.553971,-0.10593 0.184795,-0.0807 0.344027,-0.18672 0.47749,-0.31781 0.133463,-0.1311 0.236127,-0.28229 0.307992,-0.45372 0.08213,-0.17144 0.123506,-0.35797 0.123506,-0.55966 0,-0.1916 -0.04138,-0.37323 -0.123506,-0.54467 -0.07187,-0.18152 -0.174529,-0.33761 -0.307992,-0.4687 -0.133463,-0.1311 -0.292695,-0.23172 -0.47749,-0.30231 -0.174528,-0.0807 -0.35891,-0.12144 -0.553971,-0.12144 z"
           style="font-size:15.2625px;font-family:Tostada;-inkscape-font-specification:'Tostada, Normal';stroke:#000000;stroke-width:0.357914;stroke-linecap:round;stroke-linejoin:round;stroke-miterlimit:99.2;paint-order:fill markers stroke"
           id="path104-4-4-0" /></g><g
         id="g6335-6-4"
         transform="translate(1.6446848)"><path
           d="m 140.72363,113.26097 -8.57509,13.84825 c 1.68073,-0.0571 2.96126,-0.58271 4.02647,-1.4087 1.12927,-0.87567 2.03829,-2.14198 2.73764,-3.65197 1.22818,-2.65177 1.75572,-5.99878 1.81098,-8.78758 z"
           style="fill:#38593f;stroke-linecap:round;stroke-linejoin:round;stroke-miterlimit:99.2;paint-order:fill markers stroke"
           id="path6332-7-2" /><path
           d="m 145,116.29748 -5.29789,8.55606 c 1.03818,-0.0353 1.82905,-0.35939 2.48717,-0.86971 0.69795,-0.54121 1.25907,-1.32243 1.69131,-2.25568 0.75903,-1.63883 1.08516,-3.70715 1.11941,-5.43067 z"
           style="fill:#38593f;stroke-linecap:round;stroke-linejoin:round;stroke-miterlimit:99.2;paint-order:fill markers stroke"
           id="path6333-5-9" /><path
           d="M 134.70033,107.59775 120.82942,130 c 2.71963,-0.092 4.78979,-0.9413 6.5135,-2.2779 1.82719,-1.41684 3.30011,-3.46707 4.43166,-5.91023 1.98682,-4.28981 2.83692,-9.70275 2.92575,-14.21412 z"
           style="fill:#38593f;stroke-linecap:round;stroke-linejoin:round;stroke-miterlimit:99.2;paint-order:fill markers stroke"
           id="path6334-7-1" /></g></g></g></svg>
