<?xml version="1.0" encoding="UTF-8" standalone="no"?>
<svg width="100" height="100" viewBox="0 0 100 100" xmlns="http://www.w3.org/2000/svg">
  <g fill="#228B22" fill-opacity="0.2">
    <!-- Leaf 1 -->
    <path d="M20,20 C30,10 50,10 60,20 C50,30 30,30 20,20 Z" />
    <!-- Leaf 2 -->
    <path d="M70,30 C80,20 90,30 80,40 C70,50 60,40 70,30 Z" />
    <!-- Leaf 3 -->
    <path d="M30,60 C20,50 30,40 40,50 C50,60 40,70 30,60 Z" />
    <!-- Leaf 4 -->
    <path d="M60,70 C70,60 80,70 70,80 C60,90 50,80 60,70 Z" />
    <!-- Small dots -->
    <circle cx="15" cy="40" r="2" />
    <circle cx="85" cy="60" r="2" />
    <circle cx="45" cy="85" r="2" />
    <circle cx="55" cy="15" r="2" />
  </g>
</svg>
