<?xml version="1.0" encoding="utf-8"?>

<!DOCTYPE svg PUBLIC "-//W3C//DTD SVG 1.1//EN" "http://www.w3.org/Graphics/SVG/1.1/DTD/svg11.dtd">
<svg version="1.1" id="Layer_1" xmlns="http://www.w3.org/2000/svg" xmlns:xlink="http://www.w3.org/1999/xlink" x="0px" y="0px"
	 viewBox="0 0 2560 1600" enable-background="new 0 0 2560 1600" xml:space="preserve">
<pattern  width="250" height="250" patternUnits="userSpaceOnUse" id="New_Pattern" viewBox="0 -250 250 250" overflow="visible">
	<g>
		<rect x="0" y="-250" fill="none" width="250" height="250"/>
		<g>
			<path fill="#333132" d="M137.155-137.147c7.414,0.969,9.94,5.86,6.32,12.147c3.62,6.287,1.094,11.178-6.32,12.147
				c-0.001,0-0.003,0-0.007,0c0,0.004,0,0.006,0,0.007c-0.969,7.414-5.86,9.94-12.147,6.32c-6.287,3.62-11.178,1.094-12.147-6.32
				c0-0.001,0-0.003,0-0.007c-0.004,0-0.006,0-0.007,0c-7.414-0.969-9.94-5.86-6.32-12.147c-3.62-6.287-1.094-11.178,6.32-12.147
				c0.001,0,0.003,0,0.007,0c0-0.004,0-0.006,0-0.007c0.969-7.414,5.86-9.94,12.147-6.32c6.287-3.62,11.178-1.094,12.147,6.32
				c0,0.001,0,0.003,0,0.007C137.151-137.147,137.154-137.147,137.155-137.147z M120.054-161.923
				c1.185-1.332,3.03-3.138,4.946-5.433c1.916,2.295,3.761,4.101,4.946,5.433c-2.001,1.656-3.71,3.552-4.946,5.565
				C123.763-158.371,122.054-160.267,120.054-161.923z M88.077-120.054c-1.332-1.185-3.138-3.03-5.433-4.946
				c2.295-1.916,4.101-3.761,5.433-4.946c1.656,2.001,3.552,3.71,5.565,4.946C91.629-123.763,89.733-122.054,88.077-120.054z
				 M129.946-88.077c-1.185,1.332-3.03,3.138-4.946,5.433c-1.916-2.295-3.761-4.101-4.946-5.433c2.001-1.656,3.71-3.552,4.946-5.565
				C126.237-91.629,127.946-89.733,129.946-88.077z M161.923-129.946c1.332,1.185,3.138,3.03,5.433,4.946
				c-2.295,1.916-4.101,3.761-5.433,4.946c-1.656-2.001-3.552-3.71-5.565-4.946C158.371-126.237,160.267-127.946,161.923-129.946z
				 M122.411-247.896c-23.09,14.416-51.72-18.709-76.242,10.158c-14.68-6.312-9.91-4.892-17.744-3.336
				c1.209,5.718,7.965,8.745-9.228,10.271c-1.526,17.193-4.553,10.437-10.271,9.228c-1.556,7.834-2.976,3.064,3.336,17.744
				c-28.867,24.522,4.258,53.153-10.158,76.242c-0.508,0.814-0.827,1.697-0.973,2.589c0.147,0.892,0.465,1.775,0.973,2.589
				c14.416,23.09-18.709,51.72,10.158,76.242c-6.312,14.68-4.892,9.91-3.336,17.744c5.718-1.209,8.745-7.965,10.271,9.228
				c17.193,1.526,10.437,4.553,9.228,10.271c7.834,1.556,3.064,2.976,17.744-3.336c24.522,28.867,53.153-4.258,76.242,10.158
				c0.814,0.508,1.697,0.827,2.589,0.973c0.892-0.147,1.775-0.465,2.589-0.973c23.09-14.416,51.72,18.709,76.242-10.158
				c14.68,6.312,9.91,4.892,17.744,3.336c-1.209-5.718-7.965-8.745,9.228-10.271c1.526-17.193,4.553-10.437,10.271-9.228
				c1.556-7.834,2.976-3.064-3.336-17.744c28.867-24.522-4.258-53.153,10.158-76.242c0.508-0.814,0.827-1.697,0.973-2.589
				c-0.146-0.892-0.465-1.775-0.973-2.589c-14.416-23.09,18.709-51.72-10.158-76.242c6.312-14.68,4.892-9.91,3.336-17.744
				c-5.718,1.209-8.745,7.965-10.271-9.228c-17.193-1.526-10.437-4.553-9.228-10.271c-7.834-1.556-3.064-2.976-17.744,3.336
				c-24.522-28.867-53.153,4.258-76.242-10.158c-0.814-0.508-1.697-0.827-2.589-0.973
				C124.108-248.723,123.225-248.404,122.411-247.896z M238.979-216.312c0.617,6.761-3.515,9.241-9.072,10.291
				c1.415,2.675,15.366,6.84,16.729,27.254c1.229,18.403-12.612,34.068-1.652,52.935c0.141,0.242,0.214,0.524,0.242,0.832
				c-0.028,0.308-0.101,0.59-0.242,0.832c-10.96,18.867,2.881,34.532,1.652,52.935c-1.362,20.414-15.314,24.58-16.729,27.254
				c5.557,1.05,9.689,3.531,9.072,10.291c-7.899,0.413-10.883,1.304-11.909,10.758c-9.454,1.026-10.345,4.009-10.758,11.909
				c-6.761,0.617-9.241-3.515-10.291-9.072c-2.675,1.415-6.84,15.366-27.254,16.729c-18.403,1.229-34.068-12.612-52.935-1.652
				c-0.242,0.141-0.524,0.214-0.832,0.242c-0.308-0.028-0.59-0.101-0.832-0.242c-18.867-10.96-34.532,2.881-52.935,1.652
				c-20.414-1.362-24.58-15.314-27.254-16.729c-1.05,5.557-3.531,9.689-10.291,9.072C33.275-18.92,32.384-21.904,22.93-22.93
				c-1.026-9.454-4.009-10.345-11.909-10.758c-0.617-6.761,3.515-9.241,9.072-10.291c-1.415-2.675-15.366-6.84-16.729-27.254
				c-1.229-18.403,12.612-34.068,1.652-52.935c-0.141-0.242-0.214-0.524-0.242-0.832c0.028-0.308,0.101-0.59,0.242-0.832
				c10.96-18.867-2.881-34.532-1.652-52.935c1.362-20.414,15.314-24.58,16.729-27.254c-5.557-1.05-9.689-3.531-9.072-10.291
				c7.899-0.413,10.883-1.304,11.909-10.758c9.454-1.026,10.345-4.009,10.758-11.909c6.761-0.617,9.241,3.515,10.291,9.072
				c2.675-1.415,6.84-15.366,27.254-16.729c18.403-1.229,34.068,12.612,52.935,1.652c0.242-0.141,0.524-0.214,0.832-0.242
				c0.308,0.028,0.59,0.101,0.832,0.242c18.867,10.96,34.532-2.881,52.935-1.652c20.414,1.362,24.58,15.314,27.254,16.729
				c1.05-5.557,3.531-9.689,10.291-9.072c0.413,7.899,1.304,10.883,10.758,11.909C228.096-217.616,231.08-216.725,238.979-216.312z
				 M125-212.199c1.665-8.308,2.652-16.36,0-23.292C122.348-228.559,123.335-220.507,125-212.199z M37.801-125
				c-8.308-1.665-16.36-2.652-23.292,0C21.441-122.348,29.493-123.335,37.801-125z M125-37.801c-1.665,8.308-2.652,16.36,0,23.292
				C127.652-21.441,126.665-29.493,125-37.801z M212.199-125c8.308,1.665,16.36,2.652,23.292,0
				C228.559-127.652,220.507-126.665,212.199-125z M112.17-161.74c10.123,4.674,11.804,6.7,10.779,12.698
				c-7.522-1.207-11.843,3.51-13.172,8.819c-5.309,1.329-10.026,5.65-8.819,13.172c-5.997,1.025-8.024-0.656-12.698-10.779
				c-2.924,6.137-6.429,10.218-10.343,12.83c3.914,2.612,7.419,6.693,10.343,12.83c4.674-10.123,6.7-11.804,12.698-10.779
				c-1.207,7.522,3.51,11.843,8.819,13.172c1.329,5.309,5.65,10.026,13.172,8.819c1.025,5.997-0.656,8.024-10.779,12.698
				c6.137,2.924,10.218,6.429,12.83,10.343c2.612-3.914,6.693-7.419,12.83-10.343c-10.123-4.674-11.804-6.7-10.779-12.698
				c7.522,1.207,11.843-3.51,13.172-8.819c5.309-1.329,10.026-5.65,8.819-13.172c5.997-1.025,8.024,0.656,12.698,10.779
				c2.924-6.137,6.429-10.218,10.343-12.83c-3.914-2.612-7.419-6.693-10.343-12.83c-4.674,10.123-6.7,11.804-12.698,10.779
				c1.207-7.522-3.51-11.843-8.819-13.172c-1.329-5.309-5.65-10.026-13.172-8.819c-1.025-5.997,0.656-8.024,10.779-12.698
				c-6.137-2.924-10.218-6.429-12.83-10.343C122.388-168.169,118.307-164.665,112.17-161.74z"/>
			<path fill="#333132" d="M223.92-201.37c12.014,3.143,17.87,14.796,17.531,24.501c-0.203,5.802-1.775,11.565-2.839,17.327
				c-1.785,9.687-4.178,19.335-0.563,29.946c-27.192-8.466-63.176,18.921-73.271-13.695c-0.728-2.354,1.808-3.108-18.108-3.378
				c-0.27-19.916-1.024-17.38-3.378-18.108c-32.616-10.095-5.229-46.079-13.695-73.271c10.611,3.615,20.259,1.221,29.946-0.563
				c5.761-1.065,11.525-2.636,17.327-2.839c9.705-0.339,21.358,5.517,24.501,17.531c0.47,1.796-4.555,2.511,19.797,2.753
				C221.408-196.815,222.124-201.84,223.92-201.37z M201.37-26.08c-3.143,12.014-14.796,17.87-24.501,17.531
				c-5.802-0.203-11.565-1.775-17.327-2.839c-9.687-1.785-19.335-4.178-29.946-0.563c8.466-27.192-18.921-63.176,13.695-73.271
				c2.354-0.728,3.108,1.808,3.378-18.108c19.916-0.27,17.38-1.024,18.108-3.378c10.095-32.616,46.079-5.229,73.271-13.695
				c-3.615,10.611-1.221,20.259,0.563,29.946c1.065,5.761,2.636,11.525,2.839,17.327c0.339,9.705-5.517,21.358-17.531,24.501
				c-1.796,0.47-2.511-4.555-2.753,19.797C196.815-28.592,201.84-27.876,201.37-26.08z M26.08-48.63
				C14.067-51.773,8.21-63.426,8.55-73.131c0.203-5.802,1.775-11.565,2.839-17.327c1.785-9.687,4.178-19.335,0.563-29.946
				c27.192,8.466,63.176-18.921,73.271,13.695c0.728,2.354-1.808,3.108,18.108,3.378c0.27,19.916,1.024,17.38,3.378,18.108
				c32.616,10.095,5.229,46.079,13.695,73.271c-10.611-3.615-20.259-1.221-29.946,0.563c-5.761,1.065-11.525,2.636-17.327,2.839
				C63.426-8.21,51.773-14.067,48.63-26.08c-0.47-1.796,4.555-2.511-19.797-2.753C28.592-53.185,27.876-48.16,26.08-48.63z
				 M48.63-223.92c3.143-12.014,14.796-17.87,24.501-17.531c5.802,0.203,11.565,1.775,17.327,2.839
				c9.687,1.785,19.335,4.178,29.946,0.563c-8.466,27.192,18.921,63.176-13.695,73.271c-2.354,0.728-3.108-1.808-3.378,18.108
				c-19.916,0.27-17.38,1.024-18.108,3.378c-10.095,32.616-46.079,5.229-73.271,13.695c3.615-10.611,1.221-20.259-0.563-29.946
				c-1.065-5.761-2.636-11.525-2.839-17.327c-0.339-9.705,5.517-21.358,17.531-24.501c1.796-0.47,2.511,4.555,2.753-19.797
				C53.185-221.408,48.16-222.124,48.63-223.92z M158.894-144.642c2.495-0.042,3.827,0.491,4.815,3.133
				c4.354,11.65,11.564,15.747,20.136,16.509c-8.572,0.762-15.782,4.859-20.136,16.509c-0.988,2.642-2.32,3.175-4.815,3.133
				c-4.343-0.073-9.167-0.129-14.421-0.168c0.04,5.254,0.095,10.078,0.168,14.421c0.042,2.495-0.491,3.827-3.133,4.815
				c-11.65,4.354-15.747,11.564-16.509,20.136c-0.762-8.572-4.859-15.782-16.509-20.136c-2.642-0.988-3.175-2.32-3.133-4.815
				c0.073-4.343,0.129-9.167,0.168-14.421c-5.254,0.04-10.078,0.095-14.421,0.168c-2.495,0.042-3.827-0.491-4.815-3.133
				c-4.354-11.65-11.564-15.747-20.136-16.509c8.572-0.762,15.782-4.859,20.136-16.509c0.988-2.642,2.32-3.175,4.815-3.133
				c4.343,0.073,9.167,0.129,14.421,0.168c-0.04-5.254-0.095-10.078-0.168-14.421c-0.042-2.495,0.491-3.827,3.133-4.815
				c11.65-4.354,15.747-11.564,16.509-20.136c0.762,8.572,4.859,15.782,16.509,20.136c2.642,0.988,3.175,2.32,3.133,4.815
				c-0.073,4.343-0.129,9.167-0.168,14.421C149.727-144.513,154.551-144.569,158.894-144.642z M121.048-233.675
				c0.534-2.205,1.471-4.312,2.215-6.442c-0.363-0.182-0.68-0.462-0.82-0.392c-14.435,7.196-33.392-1.66-48.765-2.766
				c-9.971-0.718-22.622,5.827-26.534,17.702c-0.7,2.124,2.985,2.695-20.018,2.698c-0.002,23.003-0.573,19.318-2.698,20.018
				c-11.875,3.912-18.42,16.564-17.702,26.534c1.106,15.373,9.962,34.33,2.766,48.765c-0.07,0.14,0.211,0.457,0.392,0.82
				c2.13-0.744,4.237-1.681,6.442-2.215c13.143-3.184,29.182,2.943,43,3.952c-13.818,1.009-29.857,7.136-43,3.952
				c-2.205-0.534-4.312-1.471-6.442-2.215c-0.182,0.363-0.462,0.68-0.392,0.82c7.196,14.435-1.66,33.392-2.766,48.765
				c-0.718,9.971,5.827,22.622,17.702,26.534c2.124,0.7,2.695-2.985,2.698,20.018c23.003,0.002,19.318,0.573,20.018,2.698
				c3.912,11.875,16.564,18.42,26.534,17.702c15.373-1.106,34.33-9.962,48.765-2.766c0.14,0.07,0.457-0.211,0.82-0.392
				c-0.744-2.13-1.681-4.237-2.215-6.442c-3.184-13.143,2.943-29.182,3.952-43c1.009,13.818,7.136,29.857,3.952,43
				c-0.534,2.205-1.471,4.312-2.215,6.442c0.363,0.182,0.68,0.462,0.82,0.392c14.435-7.196,33.392,1.66,48.765,2.766
				c9.971,0.718,22.622-5.827,26.534-17.702c0.7-2.124-2.985-2.695,20.018-2.698c0.002-23.003,0.573-19.318,2.698-20.018
				c11.875-3.912,18.42-16.564,17.702-26.534c-1.106-15.373-9.962-34.33-2.766-48.765c0.07-0.14-0.211-0.457-0.392-0.82
				c-2.13,0.744-4.237,1.681-6.442,2.215c-13.143,3.184-29.182-2.943-43-3.952c13.818-1.009,29.857-7.136,43-3.952
				c2.205,0.534,4.312,1.471,6.442,2.215c0.182-0.363,0.462-0.68,0.392-0.82c-7.196-14.435,1.66-33.392,2.766-48.765
				c0.718-9.971-5.827-22.622-17.702-26.534c-2.124-0.7-2.695,2.985-2.698-20.018c-23.003-0.002-19.318-0.573-20.018-2.698
				c-3.912-11.875-16.564-18.42-26.534-17.702c-15.373,1.106-34.33,9.962-48.765,2.766c-0.14-0.07-0.457,0.211-0.82,0.392
				c0.744,2.13,1.681,4.237,2.215,6.442c3.184,13.143-2.943,29.182-3.952,43C123.991-204.493,117.864-220.531,121.048-233.675z"/>
			<path fill="#333132" d="M166.665-152.577c1.365,0.847,1.482,3.839,1.99,5.919c2.793,11.428,15.824,15.867,24.202,14.808
				c14.015-1.772,24.541-8.227,40.319-1.823c-6.204-23.238,15.07-43.091-5.443-60.724c-10.814-9.295-13.368,4.703-13.63-19.706
				c-24.409-0.262-10.411-2.815-19.706-13.63c-17.633-20.513-37.487,0.761-60.724-5.443c6.404,15.778-0.05,26.304-1.823,40.319
				c-1.059,8.378,3.379,21.409,14.808,24.202c2.08,0.508,5.072,0.624,5.919,1.99c0.217,0.349,0.277-2.053,0.383,13.705
				C168.719-152.854,166.316-152.794,166.665-152.577z M152.577-83.335c-0.847,1.365-3.839,1.482-5.919,1.99
				c-11.428,2.793-15.867,15.824-14.808,24.202c1.772,14.015,8.227,24.541,1.823,40.319c23.238-6.204,43.091,15.07,60.724-5.443
				c9.295-10.814-4.703-13.368,19.706-13.63c0.262-24.409,2.815-10.411,13.63-19.706c20.513-17.633-0.761-37.487,5.443-60.724
				c-15.778,6.404-26.304-0.05-40.319-1.823c-8.378-1.059-21.409,3.379-24.202,14.808c-0.508,2.08-0.624,5.072-1.99,5.919
				c-0.349,0.217,2.053,0.277-13.705,0.383C152.854-81.281,152.794-83.684,152.577-83.335z M83.335-97.423
				c-1.365-0.847-1.482-3.839-1.99-5.919c-2.793-11.428-15.824-15.867-24.202-14.808c-14.015,1.772-24.541,8.227-40.319,1.823
				c6.204,23.238-15.07,43.091,5.443,60.724c10.814,9.295,13.368-4.703,13.63,19.706c24.409,0.262,10.411,2.815,19.706,13.63
				c17.633,20.513,37.487-0.761,60.724,5.443c-6.404-15.778,0.05-26.304,1.823-40.319c1.059-8.378-3.379-21.409-14.808-24.202
				c-2.08-0.508-5.072-0.624-5.919-1.99c-0.217-0.349-0.277,2.053-0.383-13.705C81.281-97.146,83.684-97.206,83.335-97.423z
				 M97.423-166.665c0.847-1.365,3.839-1.482,5.919-1.99c11.428-2.793,15.867-15.824,14.808-24.202
				c-1.772-14.015-8.227-24.541-1.823-40.319c-23.238,6.204-43.091-15.07-60.724,5.443c-9.295,10.814,4.703,13.368-19.706,13.63
				c-0.262,24.409-2.815,10.411-13.63,19.706c-20.513,17.633,0.761,37.487-5.443,60.724c15.778-6.404,26.304,0.05,40.319,1.823
				c8.378,1.059,21.409-3.379,24.202-14.808c0.508-2.08,0.624-5.072,1.99-5.919c0.349-0.217-2.053-0.277,13.705-0.383
				C97.146-168.719,97.206-166.316,97.423-166.665z M203.436-184.21c-3.102,5.8-5.243,6.069-11.195,2.232
				c3.532-4.858,6.005-10.074,6.183-16.447c-6.373,0.178-11.589,2.65-16.447,6.183c-3.837-5.952-3.568-8.093,2.232-11.195
				c7.68-4.107,15.573-5.09,22.929-3.702C208.526-199.783,207.544-191.89,203.436-184.21z M184.21-46.564
				c-5.8-3.102-6.069-5.243-2.232-11.195c4.858,3.532,10.074,6.005,16.447,6.183c-0.178-6.373-2.65-11.589-6.183-16.447
				c5.952-3.837,8.093-3.568,11.195,2.232c4.107,7.68,5.09,15.573,3.702,22.929C199.783-41.474,191.89-42.456,184.21-46.564z
				 M46.564-65.79c3.102-5.8,5.243-6.069,11.195-2.232c-3.532,4.858-6.005,10.074-6.183,16.447
				c6.373-0.178,11.589-2.65,16.447-6.183c3.837,5.952,3.568,8.093-2.232,11.195c-7.68,4.107-15.573,5.09-22.929,3.702
				C41.474-50.217,42.456-58.11,46.564-65.79z M65.79-203.436c5.8,3.102,6.069,5.243,2.232,11.195
				c-4.858-3.532-10.074-6.005-16.447-6.183c0.178,6.373,2.65,11.589,6.183,16.447c-5.952,3.837-8.093,3.568-11.195-2.232
				c-4.107-7.68-5.09-15.573-3.702-22.929C50.217-208.526,58.11-207.544,65.79-203.436z M183.155-59.532
				c-0.989,0.109-2.57,0.388-2.791,0.993c-1.005,2.751-2.483,5.73-2.208,8.469c0.668,6.684,7.006,11.954,14.188,12.745
				c4.868,0.535,5.261,1.271,2.793,5.717c-2.423,4.363-5.94,7.049-10.676,5.48c-5.767-1.912-4.713-6.785-5.229-7.971
				c-1.984-4.545-8.022-1.499-5.562,2.492c0.711,1.155,1.776,2.085,2.6,3.18c2.516,3.341,1.914,7.524-1.355,9.709
				c-7.941,5.306-14.5-3.926-11.442-10.165c0.542-1.106,1.725-2.178,1.677-3.221c-0.064-1.379-1.051-2.716-1.641-4.072
				c-1.29,0.761-2.987,1.247-3.746,2.368c-0.655,0.968-0.209,2.661-0.308,4.029c-0.231,3.188-2.468,5.89-5.403,6.447
				c-5.597,1.064-11.203,2.074-16.468,3.042c0.685-3.83,1.694-7.963,2.115-12.155c0.904-8.989,0.792-8.938,9.73-10.872
				c1.284-0.278,2.736-1.278,3.399-2.374c0.406-0.671-0.325-2.955-0.929-3.12c-2.367-0.649-8.342,2.348-11.433,1.944
				c-5.231-0.682-7.218-9.928-0.885-13.517c6.626-3.753,8.342,5.466,12.482,2.772c0.788-0.512,1.552-1.693,1.593-2.601
				c0.122-2.702-2.54-2.317-4.035-3.288c-2.295-1.491-10.754-5.685-4.601-12.774c2.572-2.962,5.995-4.591,10.296-3.572
				c-0.81,6.888-0.009,12.669,6.154,16.859c4.738,3.223,9.297,2.137,13.836-0.671c1.633-1.013,2.135-1.884,1.71-3.918
				c-0.412-1.974-0.272-3.702,0.304-5.102c1.4-0.576,3.129-0.716,5.102-0.304c2.034,0.425,2.905-0.078,3.918-1.71
				c2.809-4.539,3.894-9.098,0.671-13.836c-4.19-6.163-9.972-6.964-16.859-6.154c-1.019-4.301,0.609-7.724,3.572-10.296
				c7.089-6.153,11.284,2.306,12.774,4.601c0.971,1.495,0.586,4.157,3.288,4.035c0.908-0.041,2.089-0.805,2.601-1.593
				c2.693-4.141-6.525-5.856-2.772-12.482c3.589-6.334,12.835-4.347,13.517,0.885c0.404,3.091-2.593,9.066-1.944,11.433
				c0.165,0.604,2.449,1.335,3.12,0.929c1.096-0.663,2.096-2.115,2.374-3.399c1.934-8.938,1.883-8.826,10.872-9.73
				c4.192-0.421,8.325-1.43,12.155-2.115c-0.969,5.265-1.978,10.871-3.042,16.468c-0.557,2.935-3.259,5.172-6.447,5.403
				c-1.368,0.099-3.061-0.347-4.029,0.308c-1.121,0.759-1.606,2.456-2.368,3.746c1.355,0.59,2.692,1.577,4.072,1.641
				c1.043,0.049,2.115-1.135,3.221-1.677c6.238-3.058,15.471,3.501,10.165,11.442c-2.184,3.27-6.368,3.871-9.709,1.355
				c-1.094-0.823-2.025-1.889-3.18-2.6c-3.99-2.46-7.037,3.578-2.492,5.562c1.187,0.516,6.059-0.538,7.971,5.229
				c1.569,4.736-1.117,8.253-5.48,10.676c-4.446,2.468-5.182,2.075-5.717-2.793c-0.791-7.183-6.061-13.52-12.745-14.188
				c-2.739-0.274-5.718,1.203-8.469,2.208c-0.605,0.221-0.884,1.801-0.993,2.791c-0.056,0.512,0.428,3.91-0.629,6.684
				C187.066-59.104,183.667-59.588,183.155-59.532z M59.532-66.845c-0.109-0.989-0.388-2.57-0.993-2.791
				c-2.751-1.005-5.73-2.483-8.469-2.208c-6.684,0.668-11.954,7.006-12.745,14.188c-0.535,4.868-1.271,5.261-5.717,2.793
				c-4.363-2.423-7.049-5.94-5.48-10.676c1.912-5.767,6.785-4.713,7.971-5.229c4.545-1.984,1.499-8.022-2.492-5.562
				c-1.155,0.711-2.085,1.776-3.18,2.6c-3.341,2.516-7.524,1.914-9.709-1.355c-5.306-7.941,3.926-14.5,10.165-11.442
				c1.106,0.542,2.178,1.725,3.221,1.677c1.379-0.064,2.716-1.051,4.072-1.641c-0.761-1.29-1.247-2.987-2.368-3.746
				c-0.968-0.655-2.661-0.209-4.029-0.308c-3.188-0.231-5.89-2.468-6.447-5.403c-1.064-5.597-2.074-11.203-3.042-16.468
				c3.83,0.685,7.963,1.694,12.155,2.115c8.989,0.904,8.938,0.792,10.872,9.73c0.278,1.284,1.278,2.736,2.374,3.399
				c0.671,0.406,2.955-0.325,3.12-0.929c0.649-2.367-2.348-8.342-1.944-11.433c0.682-5.231,9.928-7.218,13.517-0.885
				c3.753,6.626-5.466,8.342-2.772,12.482c0.512,0.788,1.693,1.552,2.601,1.593c2.702,0.122,2.317-2.54,3.288-4.035
				c1.491-2.295,5.685-10.754,12.774-4.601c2.962,2.572,4.591,5.995,3.572,10.296c-6.888-0.81-12.669-0.009-16.859,6.154
				c-3.223,4.738-2.137,9.297,0.671,13.836c1.013,1.633,1.884,2.135,3.918,1.71c1.974-0.412,3.702-0.272,5.102,0.304
				c0.576,1.4,0.716,3.129,0.304,5.102c-0.425,2.034,0.078,2.905,1.71,3.918c4.539,2.809,9.098,3.894,13.836,0.671
				c6.163-4.19,6.964-9.972,6.154-16.859c4.301-1.019,7.724,0.609,10.296,3.572c6.153,7.089-2.306,11.284-4.601,12.774
				c-1.495,0.971-4.157,0.586-4.035,3.288c0.041,0.908,0.805,2.089,1.593,2.601c4.141,2.693,5.856-6.525,12.482-2.772
				c6.334,3.589,4.347,12.835-0.885,13.517c-3.091,0.404-9.066-2.593-11.433-1.944c-0.604,0.165-1.335,2.449-0.929,3.12
				c0.663,1.096,2.115,2.096,3.399,2.374c8.938,1.934,8.826,1.883,9.73,10.872c0.421,4.192,1.43,8.325,2.115,12.155
				c-5.265-0.969-10.871-1.978-16.468-3.042c-2.935-0.557-5.172-3.259-5.403-6.447c-0.099-1.368,0.347-3.061-0.308-4.029
				c-0.759-1.121-2.456-1.606-3.746-2.368c-0.59,1.355-1.577,2.692-1.641,4.072c-0.049,1.043,1.135,2.115,1.677,3.221
				c3.058,6.238-3.501,15.471-11.442,10.165c-3.27-2.184-3.871-6.368-1.355-9.709c0.823-1.094,1.889-2.025,2.6-3.18
				c2.46-3.99-3.578-7.037-5.562-2.492c-0.516,1.187,0.538,6.059-5.229,7.971c-4.736,1.569-8.253-1.117-10.676-5.48
				c-2.468-4.446-2.075-5.182,2.793-5.717c7.183-0.791,13.52-6.061,14.188-12.745c0.274-2.739-1.203-5.718-2.208-8.469
				c-0.221-0.605-1.801-0.884-2.791-0.993c-0.512-0.056-3.91,0.428-6.684-0.629C59.104-62.934,59.588-66.333,59.532-66.845z
				 M66.845-190.468c0.989-0.109,2.57-0.388,2.791-0.993c1.005-2.751,2.483-5.73,2.208-8.469
				c-0.668-6.684-7.006-11.954-14.188-12.745c-4.868-0.535-5.261-1.271-2.793-5.717c2.423-4.363,5.94-7.049,10.676-5.48
				c5.767,1.912,4.713,6.785,5.229,7.971c1.984,4.545,8.022,1.499,5.562-2.492c-0.711-1.155-1.776-2.085-2.6-3.18
				c-2.516-3.341-1.914-7.524,1.355-9.709c7.941-5.306,14.5,3.926,11.442,10.165c-0.542,1.106-1.725,2.178-1.677,3.221
				c0.064,1.379,1.051,2.716,1.641,4.072c1.29-0.761,2.987-1.247,3.746-2.368c0.655-0.968,0.209-2.661,0.308-4.029
				c0.231-3.188,2.468-5.89,5.403-6.447c5.597-1.064,11.203-2.074,16.468-3.042c-0.685,3.83-1.694,7.963-2.115,12.155
				c-0.904,8.989-0.792,8.938-9.73,10.872c-1.284,0.278-2.736,1.278-3.399,2.374c-0.406,0.671,0.325,2.955,0.929,3.12
				c2.367,0.649,8.342-2.348,11.433-1.944c5.231,0.682,7.218,9.928,0.885,13.517c-6.626,3.753-8.342-5.466-12.482-2.772
				c-0.788,0.512-1.552,1.693-1.593,2.601c-0.122,2.702,2.54,2.317,4.035,3.288c2.295,1.491,10.754,5.685,4.601,12.774
				c-2.572,2.962-5.995,4.591-10.296,3.572c0.81-6.888,0.009-12.669-6.154-16.859c-4.738-3.223-9.297-2.137-13.836,0.671
				c-1.633,1.013-2.135,1.884-1.71,3.918c0.412,1.974,0.272,3.702-0.304,5.102c-1.4,0.576-3.129,0.716-5.102,0.304
				c-2.034-0.424-2.905,0.078-3.918,1.71c-2.809,4.539-3.894,9.098-0.671,13.836c4.19,6.163,9.972,6.964,16.859,6.154
				c1.019,4.301-0.609,7.724-3.572,10.296c-7.089,6.153-11.284-2.306-12.774-4.601c-0.971-1.495-0.586-4.157-3.288-4.035
				c-0.908,0.041-2.089,0.805-2.601,1.593c-2.693,4.141,6.525,5.856,2.772,12.482c-3.589,6.334-12.835,4.347-13.517-0.885
				c-0.404-3.091,2.593-9.066,1.944-11.433c-0.165-0.604-2.449-1.335-3.12-0.929c-1.096,0.663-2.096,2.115-2.374,3.399
				c-1.934,8.938-1.883,8.826-10.872,9.73c-4.192,0.421-8.325,1.43-12.155,2.115c0.969-5.265,1.978-10.871,3.042-16.468
				c0.557-2.935,3.259-5.172,6.447-5.403c1.368-0.099,3.061,0.347,4.029-0.308c1.121-0.759,1.606-2.456,2.368-3.746
				c-1.355-0.59-2.692-1.577-4.072-1.641c-1.043-0.049-2.115,1.135-3.221,1.677c-6.238,3.058-15.471-3.501-10.165-11.442
				c2.184-3.27,6.368-3.871,9.709-1.355c1.094,0.823,2.025,1.889,3.18,2.6c3.99,2.46,7.037-3.578,2.492-5.562
				c-1.187-0.516-6.059,0.538-7.971-5.229c-1.569-4.736,1.117-8.253,5.48-10.676c4.446-2.468,5.182-2.075,5.717,2.793
				c0.791,7.183,6.061,13.52,12.745,14.188c2.739,0.274,5.718-1.203,8.469-2.208c0.605-0.221,0.884-1.801,0.993-2.791
				c0.056-0.512-0.428-3.91,0.629-6.684C62.934-190.896,66.333-190.412,66.845-190.468z M190.468-183.155
				c0.109,0.989,0.388,2.57,0.993,2.791c2.751,1.005,5.73,2.483,8.469,2.208c6.684-0.668,11.954-7.006,12.745-14.188
				c0.535-4.868,1.271-5.261,5.717-2.793c4.363,2.423,7.049,5.94,5.48,10.676c-1.912,5.767-6.785,4.713-7.971,5.229
				c-4.545,1.984-1.499,8.022,2.492,5.562c1.155-0.711,2.085-1.776,3.18-2.6c3.341-2.516,7.524-1.914,9.709,1.355
				c5.306,7.941-3.926,14.5-10.165,11.442c-1.106-0.542-2.178-1.725-3.221-1.677c-1.379,0.064-2.716,1.051-4.072,1.641
				c0.761,1.29,1.247,2.987,2.368,3.746c0.968,0.655,2.661,0.209,4.029,0.308c3.188,0.231,5.89,2.468,6.447,5.403
				c1.064,5.597,2.074,11.203,3.042,16.468c-3.83-0.685-7.963-1.694-12.155-2.115c-8.989-0.904-8.938-0.792-10.872-9.73
				c-0.278-1.284-1.278-2.736-2.374-3.399c-0.671-0.406-2.955,0.325-3.12,0.929c-0.649,2.367,2.348,8.342,1.944,11.433
				c-0.682,5.231-9.928,7.218-13.517,0.885c-3.753-6.626,5.466-8.342,2.772-12.482c-0.512-0.788-1.693-1.552-2.601-1.593
				c-2.702-0.122-2.317,2.54-3.288,4.035c-1.491,2.295-5.685,10.754-12.774,4.601c-2.962-2.572-4.591-5.995-3.572-10.296
				c6.888,0.81,12.669,0.009,16.859-6.154c3.223-4.738,2.137-9.297-0.671-13.836c-1.013-1.633-1.884-2.135-3.918-1.71
				c-1.974,0.412-3.702,0.272-5.102-0.304c-0.576-1.4-0.716-3.129-0.304-5.102c0.424-2.034-0.078-2.905-1.71-3.918
				c-4.539-2.809-9.098-3.894-13.836-0.671c-6.163,4.19-6.964,9.972-6.154,16.859c-4.301,1.019-7.724-0.609-10.296-3.572
				c-6.153-7.089,2.306-11.284,4.601-12.774c1.495-0.971,4.157-0.586,4.035-3.288c-0.041-0.908-0.805-2.089-1.593-2.601
				c-4.141-2.693-5.856,6.525-12.482,2.772c-6.334-3.589-4.347-12.835,0.885-13.517c3.091-0.404,9.066,2.593,11.433,1.944
				c0.604-0.165,1.335-2.449,0.929-3.12c-0.663-1.096-2.115-2.096-3.399-2.374c-8.938-1.934-8.826-1.883-9.73-10.872
				c-0.421-4.192-1.43-8.325-2.115-12.155c5.265,0.969,10.871,1.978,16.468,3.042c2.935,0.557,5.172,3.259,5.403,6.447
				c0.099,1.368-0.347,3.061,0.308,4.029c0.759,1.121,2.456,1.606,3.746,2.368c0.59-1.355,1.577-2.692,1.641-4.072
				c0.049-1.043-1.135-2.115-1.677-3.221c-3.058-6.238,3.501-15.471,11.442-10.165c3.27,2.184,3.871,6.368,1.355,9.709
				c-0.823,1.094-1.889,2.025-2.6,3.18c-2.46,3.99,3.578,7.037,5.562,2.492c0.516-1.187-0.538-6.059,5.229-7.971
				c4.736-1.569,8.253,1.117,10.676,5.48c2.468,4.446,2.075,5.182-2.793,5.717c-7.183,0.791-13.52,6.061-14.188,12.745
				c-0.274,2.739,1.203,5.718,2.208,8.469c0.221,0.605,1.801,0.884,2.791,0.993c0.512,0.056,3.91-0.428,6.684,0.629
				C190.896-187.066,190.412-183.667,190.468-183.155z M174.201-65.596c-7.356,5.253-9.628,2.454-12.598-2.173
				c-5.655-8.808-6.006-17.568-4.434-25.061c7.493-1.573,16.253-1.221,25.061,4.434c4.627,2.97,7.426,5.242,2.173,12.598
				c-6.072-5.366-12.313-7.625-17.995-7.792C166.577-77.909,168.836-71.668,174.201-65.596z M65.596-75.799
				c-5.253-7.356-2.454-9.628,2.173-12.598c8.808-5.655,17.568-6.006,25.061-4.434c1.573,7.493,1.221,16.253-4.434,25.061
				c-2.97,4.627-5.242,7.426-12.598,2.173c5.366-6.072,7.625-12.313,7.792-17.995C77.909-83.423,71.668-81.164,65.596-75.799z
				 M75.799-184.404c7.356-5.253,9.628-2.454,12.598,2.173c5.655,8.808,6.006,17.568,4.434,25.061
				c-7.493,1.573-16.253,1.221-25.061-4.434c-4.627-2.97-7.426-5.242-2.173-12.598c6.072,5.366,12.313,7.625,17.995,7.792
				C83.423-172.091,81.164-178.332,75.799-184.404z M184.404-174.201c5.253,7.356,2.454,9.628-2.173,12.598
				c-8.808,5.655-17.568,6.006-25.061,4.434c-1.573-7.493-1.221-16.253,4.434-25.061c2.97-4.627,5.242-7.426,12.598-2.173
				c-5.366,6.072-7.625,12.313-7.792,17.995C172.091-166.577,178.332-168.836,184.404-174.201z"/>
			<path fill="#333132" d="M171.509-194.951c-0.406-4.258-0.832-8.72-1.206-12.637c-4.344-0.646-8.886-1.321-12.819-1.905
				c0.554,3.802,1.184,8.118,1.747,11.975C163.482-196.63,167.761-195.736,171.509-194.951z M168.3-205.813
				c0.186,2.559,0.377,5.199,0.567,7.827c-0.185,0.075-0.312,0.179-0.42,0.162c-2.528-0.406-5.816-0.026-7.347-1.487
				c-1.318-1.257-0.629-4.616-0.857-7.401C162.926-206.413,165.468-206.13,168.3-205.813z"/>
			<path fill="#333132" d="M55.049-171.509c-4.258,0.406-8.72,0.832-12.637,1.206c-0.646,4.344-1.321,8.886-1.905,12.819
				c3.802-0.554,8.118-1.184,11.975-1.747C53.37-163.482,54.264-167.761,55.049-171.509z M44.187-168.3
				c2.559-0.186,5.199-0.377,7.827-0.567c0.075,0.185,0.179,0.312,0.162,0.42c-0.406,2.528-0.026,5.816-1.487,7.347
				c-1.257,1.318-4.616,0.629-7.401,0.857C43.587-162.926,43.871-165.468,44.187-168.3z"/>
			<path fill="#333132" d="M78.491-55.049c0.406,4.258,0.832,8.72,1.206,12.637c4.344,0.646,8.886,1.321,12.819,1.905
				c-0.554-3.802-1.184-8.118-1.747-11.975C86.518-53.37,82.239-54.264,78.491-55.049z M81.7-44.187
				c-0.186-2.559-0.377-5.199-0.567-7.827c0.185-0.075,0.312-0.179,0.42-0.162c2.528,0.406,5.816,0.026,7.347,1.487
				c1.318,1.257,0.629,4.616,0.857,7.401C87.074-43.587,84.532-43.871,81.7-44.187z"/>
			<path fill="#333132" d="M194.951-78.491c4.258-0.406,8.72-0.832,12.637-1.206c0.646-4.344,1.321-8.886,1.905-12.819
				c-3.802,0.554-8.118,1.184-11.975,1.747C196.63-86.518,195.736-82.239,194.951-78.491z M205.813-81.7
				c-2.559,0.186-5.199,0.377-7.827,0.567c-0.075-0.185-0.179-0.312-0.162-0.42c0.406-2.528,0.026-5.816,1.487-7.347
				c1.257-1.318,4.616-0.629,7.401-0.857C206.413-87.074,206.13-84.532,205.813-81.7z"/>
			<path fill="#333132" d="M194.951-171.509c4.258,0.406,8.72,0.832,12.637,1.206c0.646,4.344,1.321,8.886,1.905,12.819
				c-3.802-0.554-8.118-1.184-11.975-1.747C196.63-163.482,195.736-167.761,194.951-171.509z M205.813-168.3
				c-2.559-0.186-5.199-0.377-7.827-0.567c-0.075,0.185-0.179,0.312-0.162,0.42c0.406,2.528,0.026,5.816,1.487,7.347
				c1.257,1.318,4.616,0.629,7.401,0.857C206.413-162.926,206.13-165.468,205.813-168.3z"/>
			<path fill="#333132" d="M78.491-194.951c0.406-4.258,0.832-8.72,1.206-12.637c4.344-0.646,8.886-1.321,12.819-1.905
				c-0.554,3.802-1.184,8.118-1.747,11.975C86.518-196.63,82.239-195.736,78.491-194.951z M81.7-205.813
				c-0.186,2.559-0.377,5.199-0.567,7.827c0.185,0.075,0.312,0.179,0.42,0.162c2.528-0.406,5.816-0.026,7.347-1.487
				c1.318-1.257,0.629-4.616,0.857-7.401C87.074-206.413,84.532-206.13,81.7-205.813z"/>
			<path fill="#333132" d="M55.049-78.491c-4.258-0.406-8.72-0.832-12.637-1.206c-0.646-4.344-1.321-8.886-1.905-12.819
				c3.802,0.554,8.118,1.184,11.975,1.747C53.37-86.518,54.264-82.239,55.049-78.491z M44.187-81.7
				c2.559,0.186,5.199,0.377,7.827,0.567c0.075-0.185,0.179-0.312,0.162-0.42c-0.406-2.528-0.026-5.816-1.487-7.347
				c-1.257-1.318-4.616-0.629-7.401-0.857C43.587-87.074,43.871-84.532,44.187-81.7z"/>
			<path fill="#333132" d="M171.509-55.049c-0.406,4.258-0.832,8.72-1.206,12.637c-4.344,0.646-8.886,1.321-12.819,1.905
				c0.554-3.802,1.184-8.118,1.747-11.975C163.482-53.37,167.761-54.264,171.509-55.049z M168.3-44.187
				c0.186-2.559,0.377-5.199,0.567-7.827c-0.185-0.075-0.312-0.179-0.42-0.162c-2.528,0.406-5.816,0.026-7.347,1.487
				c-1.318,1.257-0.629,4.616-0.857,7.401C162.926-43.587,165.468-43.871,168.3-44.187z"/>
			<path fill="#333132" d="M185.783-185.408c0.01-0.113-0.004-0.226-0.039-0.337c-0.111-0.034-0.223-0.048-0.337-0.039
				c-2.644,0.223-3.66,2.034-3.366,3.741C183.749-181.748,185.561-182.764,185.783-185.408z"/>
			<path fill="#333132" d="M182.043-67.957c1.707-0.294,3.518,0.722,3.741,3.366c0.01,0.113-0.004,0.226-0.039,0.337
				c-0.111,0.034-0.223,0.048-0.337,0.038C182.764-64.439,181.748-66.251,182.043-67.957z"/>
			<path fill="#333132" d="M67.957-67.957c0.294,1.707-0.722,3.518-3.366,3.741c-0.113,0.01-0.226-0.004-0.337-0.038
				c-0.034-0.111-0.048-0.223-0.038-0.337C64.439-67.236,66.251-68.252,67.957-67.957z"/>
			<path fill="#333132" d="M67.957-182.043c-1.707,0.294-3.518-0.722-3.741-3.366c-0.01-0.113,0.004-0.226,0.038-0.337
				c0.111-0.034,0.223-0.048,0.337-0.039C67.236-185.561,68.252-183.749,67.957-182.043z"/>
		</g>
	</g>
</pattern>
<rect fill="url(#New_Pattern)" width="2560" height="1600"/>
</svg>
